<mxfile host="app.diagrams.net" agent="Mozilla/5.0 (Windows NT 10.0; Win64; x64) AppleWebKit/537.36 (KHTML, like Gecko) Chrome/128.0.0.0 Safari/537.36 OPR/114.0.0.0" version="25.0.3">
  <diagram name="Page-1" id="4b6Hf6bp0aui97SbbCGH">
    <mxGraphModel grid="1" page="1" gridSize="10" guides="1" tooltips="1" connect="1" arrows="1" fold="1" pageScale="1" pageWidth="850" pageHeight="1100" math="0" shadow="0">
      <root>
        <mxCell id="0" />
        <mxCell id="1" parent="0" />
        <mxCell id="UbgbNVWz8KxydePqNQiI-3" value="" style="edgeStyle=orthogonalEdgeStyle;rounded=0;orthogonalLoop=1;jettySize=auto;html=1;" edge="1" parent="1" source="UbgbNVWz8KxydePqNQiI-1" target="UbgbNVWz8KxydePqNQiI-2">
          <mxGeometry relative="1" as="geometry" />
        </mxCell>
        <mxCell id="UbgbNVWz8KxydePqNQiI-1" value="Start" style="strokeWidth=2;html=1;shape=mxgraph.flowchart.start_1;whiteSpace=wrap;" vertex="1" parent="1">
          <mxGeometry x="-810" y="35" width="100" height="60" as="geometry" />
        </mxCell>
        <mxCell id="UbgbNVWz8KxydePqNQiI-5" value="" style="edgeStyle=orthogonalEdgeStyle;rounded=0;orthogonalLoop=1;jettySize=auto;html=1;" edge="1" parent="1" source="UbgbNVWz8KxydePqNQiI-2" target="UbgbNVWz8KxydePqNQiI-4">
          <mxGeometry relative="1" as="geometry" />
        </mxCell>
        <mxCell id="UbgbNVWz8KxydePqNQiI-2" value="Setup" style="whiteSpace=wrap;html=1;strokeWidth=2;" vertex="1" parent="1">
          <mxGeometry x="-820" y="125" width="120" height="60" as="geometry" />
        </mxCell>
        <mxCell id="UbgbNVWz8KxydePqNQiI-6" style="edgeStyle=orthogonalEdgeStyle;rounded=0;orthogonalLoop=1;jettySize=auto;html=1;entryX=1;entryY=0.5;entryDx=0;entryDy=0;" edge="1" parent="1" source="UbgbNVWz8KxydePqNQiI-4" target="UbgbNVWz8KxydePqNQiI-4">
          <mxGeometry relative="1" as="geometry">
            <mxPoint x="-670" y="205" as="targetPoint" />
            <Array as="points">
              <mxPoint x="-760" y="305" />
              <mxPoint x="-670" y="305" />
              <mxPoint x="-670" y="245" />
            </Array>
          </mxGeometry>
        </mxCell>
        <mxCell id="UbgbNVWz8KxydePqNQiI-4" value="Start MAIN" style="whiteSpace=wrap;html=1;strokeWidth=2;" vertex="1" parent="1">
          <mxGeometry x="-820" y="215" width="120" height="60" as="geometry" />
        </mxCell>
        <mxCell id="UbgbNVWz8KxydePqNQiI-9" value="" style="edgeStyle=orthogonalEdgeStyle;rounded=0;orthogonalLoop=1;jettySize=auto;html=1;" edge="1" parent="1" source="UbgbNVWz8KxydePqNQiI-7" target="UbgbNVWz8KxydePqNQiI-8">
          <mxGeometry relative="1" as="geometry" />
        </mxCell>
        <mxCell id="UbgbNVWz8KxydePqNQiI-7" value="Start ISR" style="strokeWidth=2;html=1;shape=mxgraph.flowchart.start_1;whiteSpace=wrap;" vertex="1" parent="1">
          <mxGeometry x="-552.5" y="38" width="100" height="60" as="geometry" />
        </mxCell>
        <mxCell id="UbgbNVWz8KxydePqNQiI-11" value="" style="edgeStyle=orthogonalEdgeStyle;rounded=0;orthogonalLoop=1;jettySize=auto;html=1;" edge="1" parent="1" source="UbgbNVWz8KxydePqNQiI-8" target="UbgbNVWz8KxydePqNQiI-10">
          <mxGeometry relative="1" as="geometry" />
        </mxCell>
        <mxCell id="UbgbNVWz8KxydePqNQiI-13" value="" style="edgeStyle=orthogonalEdgeStyle;rounded=0;orthogonalLoop=1;jettySize=auto;html=1;" edge="1" parent="1" source="UbgbNVWz8KxydePqNQiI-8" target="UbgbNVWz8KxydePqNQiI-12">
          <mxGeometry relative="1" as="geometry" />
        </mxCell>
        <mxCell id="UbgbNVWz8KxydePqNQiI-8" value="Frequency&lt;div&gt;Select High?&lt;/div&gt;" style="rhombus;whiteSpace=wrap;html=1;strokeWidth=2;" vertex="1" parent="1">
          <mxGeometry x="-552.5" y="133" width="100" height="95" as="geometry" />
        </mxCell>
        <mxCell id="UbgbNVWz8KxydePqNQiI-17" value="" style="edgeStyle=orthogonalEdgeStyle;rounded=0;orthogonalLoop=1;jettySize=auto;html=1;exitX=0.5;exitY=1;exitDx=0;exitDy=0;" edge="1" parent="1" source="UbgbNVWz8KxydePqNQiI-10" target="UbgbNVWz8KxydePqNQiI-16">
          <mxGeometry relative="1" as="geometry">
            <mxPoint x="-502.5" y="370.5" as="sourcePoint" />
          </mxGeometry>
        </mxCell>
        <mxCell id="UbgbNVWz8KxydePqNQiI-10" value="Set PWM&lt;div&gt;frequency to 38kHz,&lt;/div&gt;&lt;div&gt;Duty Cycle to 95%&lt;/div&gt;" style="shape=parallelogram;perimeter=parallelogramPerimeter;whiteSpace=wrap;html=1;fixedSize=1;strokeWidth=2;" vertex="1" parent="1">
          <mxGeometry x="-570" y="265.5" width="135" height="60" as="geometry" />
        </mxCell>
        <mxCell id="detruE3mqIv80y11Yhen-1" style="edgeStyle=orthogonalEdgeStyle;rounded=0;orthogonalLoop=1;jettySize=auto;html=1;" edge="1" parent="1" source="UbgbNVWz8KxydePqNQiI-12">
          <mxGeometry relative="1" as="geometry">
            <mxPoint x="-502.5" y="353" as="targetPoint" />
            <Array as="points">
              <mxPoint x="-362.5" y="353" />
              <mxPoint x="-502.5" y="353" />
            </Array>
          </mxGeometry>
        </mxCell>
        <mxCell id="UbgbNVWz8KxydePqNQiI-12" value="Set PWM&lt;div&gt;frequency to 56kHz,&lt;/div&gt;&lt;div&gt;Duty Cycle to 95%&lt;/div&gt;" style="shape=parallelogram;perimeter=parallelogramPerimeter;whiteSpace=wrap;html=1;fixedSize=1;strokeWidth=2;" vertex="1" parent="1">
          <mxGeometry x="-427.5" y="150.5" width="135" height="60" as="geometry" />
        </mxCell>
        <mxCell id="UbgbNVWz8KxydePqNQiI-14" value="N" style="text;html=1;align=center;verticalAlign=middle;resizable=0;points=[];autosize=1;strokeColor=none;fillColor=none;" vertex="1" parent="1">
          <mxGeometry x="-532.5" y="218" width="30" height="30" as="geometry" />
        </mxCell>
        <mxCell id="UbgbNVWz8KxydePqNQiI-15" value="Y" style="text;html=1;align=center;verticalAlign=middle;resizable=0;points=[];autosize=1;strokeColor=none;fillColor=none;" vertex="1" parent="1">
          <mxGeometry x="-462.5" y="150.5" width="30" height="30" as="geometry" />
        </mxCell>
        <mxCell id="UbgbNVWz8KxydePqNQiI-19" value="" style="edgeStyle=orthogonalEdgeStyle;rounded=0;orthogonalLoop=1;jettySize=auto;html=1;" edge="1" parent="1" source="UbgbNVWz8KxydePqNQiI-16" target="UbgbNVWz8KxydePqNQiI-18">
          <mxGeometry relative="1" as="geometry" />
        </mxCell>
        <mxCell id="UbgbNVWz8KxydePqNQiI-45" value="" style="edgeStyle=orthogonalEdgeStyle;rounded=0;orthogonalLoop=1;jettySize=auto;html=1;" edge="1" parent="1" source="UbgbNVWz8KxydePqNQiI-16" target="UbgbNVWz8KxydePqNQiI-44">
          <mxGeometry relative="1" as="geometry" />
        </mxCell>
        <mxCell id="UbgbNVWz8KxydePqNQiI-16" value="Full-Auto?" style="rhombus;whiteSpace=wrap;html=1;strokeWidth=2;" vertex="1" parent="1">
          <mxGeometry x="-542.5" y="400.5" width="80" height="80" as="geometry" />
        </mxCell>
        <mxCell id="detruE3mqIv80y11Yhen-4" style="edgeStyle=orthogonalEdgeStyle;rounded=0;orthogonalLoop=1;jettySize=auto;html=1;entryX=0;entryY=0.5;entryDx=0;entryDy=0;" edge="1" parent="1" source="UbgbNVWz8KxydePqNQiI-18" target="UbgbNVWz8KxydePqNQiI-24">
          <mxGeometry relative="1" as="geometry" />
        </mxCell>
        <mxCell id="detruE3mqIv80y11Yhen-15" style="edgeStyle=orthogonalEdgeStyle;rounded=0;orthogonalLoop=1;jettySize=auto;html=1;entryX=1;entryY=0.5;entryDx=0;entryDy=0;" edge="1" parent="1" source="UbgbNVWz8KxydePqNQiI-18" target="UbgbNVWz8KxydePqNQiI-124">
          <mxGeometry relative="1" as="geometry">
            <Array as="points">
              <mxPoint x="-372.5" y="383" />
              <mxPoint x="-82.5" y="383" />
              <mxPoint x="-82.5" y="833" />
            </Array>
          </mxGeometry>
        </mxCell>
        <mxCell id="UbgbNVWz8KxydePqNQiI-18" value="Trigger&lt;div&gt;Pressed?&lt;/div&gt;" style="rhombus;whiteSpace=wrap;html=1;strokeWidth=2;" vertex="1" parent="1">
          <mxGeometry x="-412.5" y="400.5" width="80" height="80" as="geometry" />
        </mxCell>
        <mxCell id="detruE3mqIv80y11Yhen-3" style="edgeStyle=orthogonalEdgeStyle;rounded=0;orthogonalLoop=1;jettySize=auto;html=1;exitX=0.464;exitY=1.027;exitDx=0;exitDy=0;exitPerimeter=0;" edge="1" parent="1" source="UbgbNVWz8KxydePqNQiI-24">
          <mxGeometry relative="1" as="geometry">
            <mxPoint x="-442.5" y="440.5" as="targetPoint" />
            <Array as="points">
              <mxPoint x="-238.5" y="503" />
              <mxPoint x="-441.5" y="503" />
              <mxPoint x="-441.5" y="441" />
            </Array>
          </mxGeometry>
        </mxCell>
        <mxCell id="UbgbNVWz8KxydePqNQiI-24" value="Toggle PWM Output &amp;amp;&lt;div&gt;&amp;nbsp;Solenoid&lt;/div&gt;" style="shape=parallelogram;perimeter=parallelogramPerimeter;whiteSpace=wrap;html=1;fixedSize=1;strokeWidth=2;" vertex="1" parent="1">
          <mxGeometry x="-312.5" y="410.5" width="160" height="60" as="geometry" />
        </mxCell>
        <mxCell id="UbgbNVWz8KxydePqNQiI-35" value="Y" style="text;html=1;align=center;verticalAlign=middle;resizable=0;points=[];autosize=1;strokeColor=none;fillColor=none;" vertex="1" parent="1">
          <mxGeometry x="-342.5" y="410.5" width="30" height="30" as="geometry" />
        </mxCell>
        <mxCell id="UbgbNVWz8KxydePqNQiI-36" value="Y" style="text;html=1;align=center;verticalAlign=middle;resizable=0;points=[];autosize=1;strokeColor=none;fillColor=none;" vertex="1" parent="1">
          <mxGeometry x="-477.5" y="410.5" width="30" height="30" as="geometry" />
        </mxCell>
        <mxCell id="UbgbNVWz8KxydePqNQiI-43" value="N" style="text;html=1;align=center;verticalAlign=middle;resizable=0;points=[];autosize=1;strokeColor=none;fillColor=none;" vertex="1" parent="1">
          <mxGeometry x="-405" y="380.5" width="30" height="30" as="geometry" />
        </mxCell>
        <mxCell id="UbgbNVWz8KxydePqNQiI-109" value="" style="edgeStyle=orthogonalEdgeStyle;rounded=0;orthogonalLoop=1;jettySize=auto;html=1;entryX=0.5;entryY=0;entryDx=0;entryDy=0;" edge="1" parent="1" source="UbgbNVWz8KxydePqNQiI-44" target="UbgbNVWz8KxydePqNQiI-108">
          <mxGeometry relative="1" as="geometry" />
        </mxCell>
        <mxCell id="detruE3mqIv80y11Yhen-12" style="edgeStyle=orthogonalEdgeStyle;rounded=0;orthogonalLoop=1;jettySize=auto;html=1;entryX=0;entryY=0.5;entryDx=0;entryDy=0;exitX=1;exitY=0.5;exitDx=0;exitDy=0;" edge="1" parent="1" source="UbgbNVWz8KxydePqNQiI-44" target="UbgbNVWz8KxydePqNQiI-46">
          <mxGeometry relative="1" as="geometry">
            <mxPoint x="-460.00000000000045" y="553" as="sourcePoint" />
          </mxGeometry>
        </mxCell>
        <mxCell id="UbgbNVWz8KxydePqNQiI-44" value="Burst-Fire?" style="rhombus;whiteSpace=wrap;html=1;strokeWidth=2;" vertex="1" parent="1">
          <mxGeometry x="-542.5" y="523" width="80" height="80" as="geometry" />
        </mxCell>
        <mxCell id="detruE3mqIv80y11Yhen-7" style="edgeStyle=orthogonalEdgeStyle;rounded=0;orthogonalLoop=1;jettySize=auto;html=1;" edge="1" parent="1" source="UbgbNVWz8KxydePqNQiI-46">
          <mxGeometry relative="1" as="geometry">
            <mxPoint x="-82.5" y="643" as="targetPoint" />
            <Array as="points">
              <mxPoint x="-374.5" y="643" />
            </Array>
          </mxGeometry>
        </mxCell>
        <mxCell id="detruE3mqIv80y11Yhen-11" style="edgeStyle=orthogonalEdgeStyle;rounded=0;orthogonalLoop=1;jettySize=auto;html=1;entryX=0;entryY=0.5;entryDx=0;entryDy=0;" edge="1" parent="1" source="UbgbNVWz8KxydePqNQiI-46" target="detruE3mqIv80y11Yhen-8">
          <mxGeometry relative="1" as="geometry" />
        </mxCell>
        <mxCell id="UbgbNVWz8KxydePqNQiI-46" value="Trigger&lt;div&gt;Pressed?&lt;/div&gt;" style="rhombus;whiteSpace=wrap;html=1;strokeWidth=2;" vertex="1" parent="1">
          <mxGeometry x="-415" y="523" width="80" height="80" as="geometry" />
        </mxCell>
        <mxCell id="UbgbNVWz8KxydePqNQiI-113" value="" style="edgeStyle=orthogonalEdgeStyle;rounded=0;orthogonalLoop=1;jettySize=auto;html=1;entryX=0;entryY=0.5;entryDx=0;entryDy=0;" edge="1" parent="1" source="UbgbNVWz8KxydePqNQiI-108" target="detruE3mqIv80y11Yhen-14">
          <mxGeometry relative="1" as="geometry">
            <mxPoint x="-427.5" y="722.9999999999998" as="targetPoint" />
          </mxGeometry>
        </mxCell>
        <mxCell id="UbgbNVWz8KxydePqNQiI-108" value="Trigger&lt;div&gt;Pressed?&lt;/div&gt;" style="rhombus;whiteSpace=wrap;html=1;strokeWidth=2;" vertex="1" parent="1">
          <mxGeometry x="-542.5" y="683" width="80" height="80" as="geometry" />
        </mxCell>
        <mxCell id="UbgbNVWz8KxydePqNQiI-131" value="" style="edgeStyle=orthogonalEdgeStyle;rounded=0;orthogonalLoop=1;jettySize=auto;html=1;" edge="1" parent="1" source="UbgbNVWz8KxydePqNQiI-124" target="UbgbNVWz8KxydePqNQiI-130">
          <mxGeometry relative="1" as="geometry" />
        </mxCell>
        <mxCell id="UbgbNVWz8KxydePqNQiI-124" value="Disable PWM&lt;div&gt;Output Driver,&lt;div&gt;De-energize solenoid&lt;/div&gt;&lt;/div&gt;" style="shape=parallelogram;perimeter=parallelogramPerimeter;whiteSpace=wrap;html=1;fixedSize=1;strokeWidth=2;" vertex="1" parent="1">
          <mxGeometry x="-580" y="803" width="155" height="60" as="geometry" />
        </mxCell>
        <mxCell id="UbgbNVWz8KxydePqNQiI-134" value="" style="edgeStyle=orthogonalEdgeStyle;rounded=0;orthogonalLoop=1;jettySize=auto;html=1;" edge="1" parent="1" source="UbgbNVWz8KxydePqNQiI-130" target="UbgbNVWz8KxydePqNQiI-133">
          <mxGeometry relative="1" as="geometry" />
        </mxCell>
        <mxCell id="UbgbNVWz8KxydePqNQiI-130" value="Clear interrupt&lt;div&gt;flags&lt;/div&gt;" style="shape=parallelogram;perimeter=parallelogramPerimeter;whiteSpace=wrap;html=1;fixedSize=1;strokeWidth=2;" vertex="1" parent="1">
          <mxGeometry x="-562.47" y="903" width="120" height="60" as="geometry" />
        </mxCell>
        <mxCell id="UbgbNVWz8KxydePqNQiI-133" value="End ISR" style="strokeWidth=2;html=1;shape=mxgraph.flowchart.terminator;whiteSpace=wrap;" vertex="1" parent="1">
          <mxGeometry x="-552.47" y="1003" width="100" height="60" as="geometry" />
        </mxCell>
        <mxCell id="UbgbNVWz8KxydePqNQiI-136" value="Y" style="text;html=1;align=center;verticalAlign=middle;resizable=0;points=[];autosize=1;strokeColor=none;fillColor=none;" vertex="1" parent="1">
          <mxGeometry x="-467.5" y="698" width="30" height="30" as="geometry" />
        </mxCell>
        <mxCell id="UbgbNVWz8KxydePqNQiI-137" value="N" style="text;html=1;align=center;verticalAlign=middle;resizable=0;points=[];autosize=1;strokeColor=none;fillColor=none;" vertex="1" parent="1">
          <mxGeometry x="-532.5" y="753" width="30" height="30" as="geometry" />
        </mxCell>
        <mxCell id="UbgbNVWz8KxydePqNQiI-139" value="N" style="text;html=1;align=center;verticalAlign=middle;resizable=0;points=[];autosize=1;strokeColor=none;fillColor=none;" vertex="1" parent="1">
          <mxGeometry x="-405" y="593" width="30" height="30" as="geometry" />
        </mxCell>
        <mxCell id="UbgbNVWz8KxydePqNQiI-142" value="N" style="text;html=1;align=center;verticalAlign=middle;resizable=0;points=[];autosize=1;strokeColor=none;fillColor=none;" vertex="1" parent="1">
          <mxGeometry x="-532.5" y="593" width="30" height="30" as="geometry" />
        </mxCell>
        <mxCell id="UbgbNVWz8KxydePqNQiI-143" value="N" style="text;html=1;align=center;verticalAlign=middle;resizable=0;points=[];autosize=1;strokeColor=none;fillColor=none;" vertex="1" parent="1">
          <mxGeometry x="-532.5" y="470.5" width="30" height="30" as="geometry" />
        </mxCell>
        <mxCell id="UbgbNVWz8KxydePqNQiI-145" value="Y" style="text;html=1;align=center;verticalAlign=middle;resizable=0;points=[];autosize=1;strokeColor=none;fillColor=none;" vertex="1" parent="1">
          <mxGeometry x="-347.5" y="533" width="30" height="30" as="geometry" />
        </mxCell>
        <mxCell id="UbgbNVWz8KxydePqNQiI-146" value="Y" style="text;html=1;align=center;verticalAlign=middle;resizable=0;points=[];autosize=1;strokeColor=none;fillColor=none;" vertex="1" parent="1">
          <mxGeometry x="-477.5" y="533" width="30" height="30" as="geometry" />
        </mxCell>
        <mxCell id="detruE3mqIv80y11Yhen-13" style="edgeStyle=orthogonalEdgeStyle;rounded=0;orthogonalLoop=1;jettySize=auto;html=1;" edge="1" parent="1" source="detruE3mqIv80y11Yhen-8">
          <mxGeometry relative="1" as="geometry">
            <mxPoint x="-82.5" y="563" as="targetPoint" />
          </mxGeometry>
        </mxCell>
        <mxCell id="detruE3mqIv80y11Yhen-8" value="Toggle PWM Output &amp;amp; Solenoid 3 times" style="shape=parallelogram;perimeter=parallelogramPerimeter;whiteSpace=wrap;html=1;fixedSize=1;strokeWidth=2;" vertex="1" parent="1">
          <mxGeometry x="-292.47" y="533" width="160" height="60" as="geometry" />
        </mxCell>
        <mxCell id="detruE3mqIv80y11Yhen-17" style="edgeStyle=orthogonalEdgeStyle;rounded=0;orthogonalLoop=1;jettySize=auto;html=1;" edge="1" parent="1" source="detruE3mqIv80y11Yhen-14">
          <mxGeometry relative="1" as="geometry">
            <mxPoint x="-355" y="833" as="targetPoint" />
          </mxGeometry>
        </mxCell>
        <mxCell id="detruE3mqIv80y11Yhen-14" value="Toggle PWM Output &amp;amp;&lt;div&gt;&amp;nbsp;Solenoid Once&lt;/div&gt;" style="shape=parallelogram;perimeter=parallelogramPerimeter;whiteSpace=wrap;html=1;fixedSize=1;strokeWidth=2;" vertex="1" parent="1">
          <mxGeometry x="-435" y="693" width="160" height="60" as="geometry" />
        </mxCell>
        <mxCell id="detruE3mqIv80y11Yhen-16" style="edgeStyle=orthogonalEdgeStyle;rounded=0;orthogonalLoop=1;jettySize=auto;html=1;entryX=0.5;entryY=0;entryDx=0;entryDy=0;" edge="1" parent="1" source="UbgbNVWz8KxydePqNQiI-108" target="UbgbNVWz8KxydePqNQiI-124">
          <mxGeometry relative="1" as="geometry" />
        </mxCell>
      </root>
    </mxGraphModel>
  </diagram>
</mxfile>
